<svg xmlns="http://www.w3.org/2000/svg" width="40" height="40" fill="none" viewBox="0 0 40 40"><g clip-path="url(#clip0_408_733)"><rect width="40" height="40" y=".626" fill="#FCCEDC" rx="20"/><path fill="#F99DBA" d="M-17.9 7.39647C-23.9333 2.3687 -29.9667 2.3687 -36 7.39647V34.999H145V7.39647C138.967 12.4243 132.933 12.4243 126.9 7.39647C120.867 2.3687 114.833 2.3687 108.8 7.39647C102.767 12.4243 96.7333 12.4243 90.7 7.39647C84.6667 2.3687 78.6333 2.3687 72.6 7.39647C66.5667 12.4243 60.5333 12.4243 54.5 7.39647C48.4667 2.3687 42.4333 2.3687 36.4 7.39647C30.3667 12.4243 24.3333 12.4243 18.3 7.39647C12.2667 2.3687 6.23333 2.3687 0.200001 7.39647C-5.83333 12.4243 -11.8667 12.4243 -17.9 7.39647Z"/><path fill="#F66D97" d="M-41.9 15.3965C-47.9333 10.3687 -53.9667 10.3687 -60 15.3965V42.999H121V15.3965C114.967 20.4243 108.933 20.4243 102.9 15.3965C96.8667 10.3687 90.8333 10.3687 84.8 15.3965C78.7667 20.4243 72.7333 20.4243 66.7 15.3965C60.6667 10.3687 54.6333 10.3687 48.6 15.3965C42.5667 20.4243 36.5333 20.4243 30.5 15.3965C24.4667 10.3687 18.4333 10.3687 12.4 15.3965C6.36667 20.4243 0.333336 20.4243 -5.7 15.3965C-11.7333 10.3687 -17.7667 10.3687 -23.8 15.3965C-29.8333 20.4243 -35.8667 20.4243 -41.9 15.3965Z"/><path fill="#F33C75" d="M-21.9 23.3965C-27.9333 18.3687 -33.9667 18.3687 -40 23.3965V50.999H141V23.3965C134.967 28.4243 128.933 28.4243 122.9 23.3965C116.867 18.3687 110.833 18.3687 104.8 23.3965C98.7667 28.4243 92.7333 28.4243 86.7 23.3965C80.6667 18.3687 74.6333 18.3687 68.6 23.3965C62.5667 28.4243 56.5333 28.4243 50.5 23.3965C44.4667 18.3687 38.4333 18.3687 32.4 23.3965C26.3667 28.4243 20.3333 28.4243 14.3 23.3965C8.26667 18.3687 2.23333 18.3687 -3.8 23.3965C-9.83333 28.4243 -15.8667 28.4243 -21.9 23.3965Z"/><path fill="#F00B52" d="M-8.9 33.3965C-14.9333 28.3687 -20.9667 28.3687 -27 33.3965V60.999H154V33.3965C147.967 38.4243 141.933 38.4243 135.9 33.3965C129.867 28.3687 123.833 28.3687 117.8 33.3965C111.767 38.4243 105.733 38.4243 99.7 33.3965C93.6667 28.3687 87.6333 28.3687 81.6 33.3965C75.5667 38.4243 69.5333 38.4243 63.5 33.3965C57.4667 28.3687 51.4333 28.3687 45.4 33.3965C39.3667 38.4243 33.3333 38.4243 27.3 33.3965C21.2667 28.3687 15.2333 28.3687 9.2 33.3965C3.16667 38.4243 -2.86666 38.4243 -8.9 33.3965Z"/></g><defs><clipPath id="clip0_408_733"><rect width="40" height="40" y=".626" fill="#fff" rx="20"/></clipPath></defs></svg>